<svg width="105" height="11" viewBox="0 0 105 11" fill="none" xmlns="http://www.w3.org/2000/svg">
<path d="M11.3993 9.99818H9.2681V4.0532H9.22191L6.86635 9.89921H5.48072L3.13176 4.0532H3.07898V9.99818H0.947754V0.476967H3.74539L6.14714 6.59351H6.19993L8.60168 0.476967H11.3993V9.99818Z" fill="black"/>
<path d="M18.499 7.90655H15.3846L14.7776 9.99818H12.3099L15.51 0.476967H18.4726L21.6727 9.99818H19.0994L18.499 7.90655ZM15.8531 6.16462H18.0239L16.9682 2.49602H16.9154L15.8531 6.16462Z" fill="black"/>
<path d="M26.4762 0.476967C27.919 0.476967 29.0385 0.881657 29.8347 1.69104C30.6353 2.50921 31.0356 3.6727 31.0356 5.18149C31.0356 6.69908 30.6353 7.88236 29.8347 8.73133C29.0341 9.5759 27.9146 9.99818 26.4762 9.99818H22.5899V0.476967H26.4762ZM25.0114 8.04511H26.1529C27.7673 8.04511 28.5745 7.09277 28.5745 5.18809C28.5745 4.29953 28.3633 3.61551 27.941 3.13604C27.5187 2.66537 26.9227 2.43004 26.1529 2.43004H25.0114V8.04511Z" fill="black"/>
<path d="M38.7489 9.99818H32.2233V0.476967H38.7489V2.43004H34.6448V4.32372H38.5048V6.10524H34.6448V8.04511H38.7489V9.99818Z" fill="black"/>
<path d="M42.8464 9.99818V0.476967H45.2679V9.99818H42.8464Z" fill="black"/>
<path d="M46.7129 9.99818V0.476967H48.6462L52.6843 6.01286H52.7371V0.476967H55.0333V9.99818H53.1198L49.0619 4.4095H49.0091V9.99818H46.7129Z" fill="black"/>
<path d="M59.2099 9.99818V0.476967H61.6315V4.66023H61.6843L64.924 0.476967H67.5237L64.2048 4.70642L67.715 9.99818H64.8712L62.4431 6.27679L61.6315 7.30611V9.99818H59.2099Z" fill="black"/>
<path d="M72.5053 0.312012C73.9481 0.312012 75.0918 0.754092 75.9364 1.63825C76.781 2.52241 77.2033 3.72329 77.2033 5.24087C77.2033 6.75846 76.781 7.95714 75.9364 8.8369C75.0918 9.72106 73.9481 10.1631 72.5053 10.1631C71.0581 10.1631 69.9122 9.72106 69.0677 8.8369C68.2231 7.95714 67.8008 6.75846 67.8008 5.24087C67.8008 3.72329 68.2253 2.52241 69.0743 1.63825C69.9188 0.754092 71.0625 0.312012 72.5053 0.312012ZM72.5053 2.27828C71.8279 2.27828 71.2869 2.54441 70.8822 3.07666C70.4731 3.61332 70.2685 4.33472 70.2685 5.24087C70.2685 6.14263 70.4709 6.86183 70.8756 7.39849C71.2803 7.93074 71.8235 8.19687 72.5053 8.19687C73.1827 8.19687 73.7238 7.93074 74.1285 7.39849C74.5376 6.86183 74.7421 6.14263 74.7421 5.24087C74.7421 4.33472 74.5376 3.61332 74.1285 3.07666C73.7238 2.54441 73.1827 2.27828 72.5053 2.27828Z" fill="black"/>
<path d="M80.8059 5.00994H82.2377C82.682 5.00994 83.0295 4.88897 83.2802 4.64703C83.5309 4.4051 83.6563 4.07739 83.6563 3.6639C83.6563 3.25481 83.5265 2.9271 83.267 2.68077C83.0075 2.43004 82.6622 2.30467 82.2311 2.30467H80.8059V5.00994ZM80.8059 9.99818H78.3843V0.476967H82.4752C83.6541 0.476967 84.5603 0.754092 85.1937 1.30834C85.8183 1.85379 86.1306 2.62358 86.1306 3.61771C86.1306 4.21595 85.9899 4.75261 85.7083 5.22768C85.418 5.72474 85.0177 6.08544 84.5075 6.30978L86.4078 9.99818H83.6893L82.0595 6.66609H80.8059V9.99818Z" fill="black"/>
<path d="M93.8703 9.99818H87.3447V0.476967H93.8703V2.43004H89.7662V4.32372H93.6262V6.10524H89.7662V8.04511H93.8703V9.99818Z" fill="black"/>
<path d="M100.897 7.90655H97.7831L97.176 9.99818H94.7083L97.9084 0.476967H100.871L104.071 9.99818H101.498L100.897 7.90655ZM98.2515 6.16462H100.422L99.3666 2.49602H99.3139L98.2515 6.16462Z" fill="black"/>
</svg>
