<svg width="135" height="31" viewBox="0 0 135 31" fill="none" xmlns="http://www.w3.org/2000/svg">
<path d="M0 0.834136V30.3208H9.7385V22.6121H12.9004C20.4045 22.6121 26.138 20.0005 26.138 11.7442C26.138 3.44581 20.4045 0.834136 12.9004 0.834136H0ZM16.4838 11.7442C16.4838 13.7661 15.0504 14.6086 12.816 14.6086H9.7385V8.83765H12.816C15.0504 8.83765 16.4838 9.68013 16.4838 11.7442Z" fill="black"/>
<path d="M29.066 0.834136V30.3208H51.4097V21.8118H38.8045V0.834136H29.066Z" fill="black"/>
<path d="M61.6426 30.3208L62.9495 26.4033H73.1517L74.4165 30.3208H84.2814L73.2782 0.834136H62.823L51.7776 30.3208H61.6426ZM67.2496 13.0922C67.5447 11.9969 67.8398 10.8175 68.0506 9.30102C68.2614 10.8175 68.5565 11.9969 68.8938 13.0922L70.9595 19.3686H65.1839L67.2496 13.0922Z" fill="black"/>
<path d="M83.6296 15.8723C83.6296 26.6139 91.6818 30.9948 100.029 30.9948C103.149 30.9948 106.058 30.405 108.671 29.2256V20.3374C107.154 21.6854 104.329 22.4436 101.294 22.4436C97.4153 22.4436 93.6211 20.5059 93.6211 15.8723C93.6211 10.6069 97.4575 8.58491 101.505 8.58491C104.118 8.58491 106.817 9.46951 108.461 10.6069V1.92935C105.847 0.749889 102.812 0.160156 99.7761 0.160156C91.6818 0.160156 83.5875 4.6674 83.6296 15.8723Z" fill="black"/>
<path d="M112.229 0.834136V30.3208H134.826V22.57H121.968V19.0737H133.055V11.9127H121.968V8.50066H134.573V0.834136H112.229Z" fill="black"/>
</svg>
